<?xml version="1.0" encoding="UTF-8" standalone="no"?>
<!DOCTYPE svg PUBLIC "-//W3C//DTD SVG 1.1//EN"
 "http://www.w3.org/Graphics/SVG/1.1/DTD/svg11.dtd">
<!-- Generated by graphviz version 13.1.2 (20250808.2320)
 -->
<!-- Pages: 1 -->
<svg width="535pt" height="695pt"
 viewBox="0.00 0.00 535.00 695.00" xmlns="http://www.w3.org/2000/svg" xmlns:xlink="http://www.w3.org/1999/xlink">
<g id="graph0" class="graph" transform="scale(1 1) rotate(0) translate(4 691)">
<polygon fill="white" stroke="none" points="-4,4 -4,-691 531,-691 531,4 -4,4"/>
<g id="clust1" class="cluster">
<title>cluster_Comet</title>
<polygon fill="none" stroke="black" points="8,-8 8,-679 519,-679 519,-8 8,-8"/>
<text xml:space="preserve" text-anchor="middle" x="263.5" y="-661.7" font-family="Times,serif" font-size="14.00">Comet Core Functions</text>
</g>
<!-- supply -->
<g id="node1" class="node">
<title>supply</title>
<polygon fill="none" stroke="black" points="131.25,-52 77.25,-52 77.25,-16 131.25,-16 131.25,-52"/>
<text xml:space="preserve" text-anchor="middle" x="104.25" y="-28.95" font-family="Times,serif" font-size="14.00">supply</text>
</g>
<!-- supplyInternal -->
<g id="node4" class="node">
<title>supplyInternal</title>
<polygon fill="none" stroke="black" points="330,-106 236,-106 236,-70 330,-70 330,-106"/>
<text xml:space="preserve" text-anchor="middle" x="283" y="-82.95" font-family="Times,serif" font-size="14.00">supplyInternal</text>
</g>
<!-- supply&#45;&gt;supplyInternal -->
<g id="edge1" class="edge">
<title>supply&#45;&gt;supplyInternal</title>
<path fill="none" stroke="black" d="M131.71,-42.08C156.26,-49.59 193.63,-61 224.96,-70.57"/>
<polygon fill="black" stroke="black" points="223.72,-73.85 234.31,-73.43 225.77,-67.16 223.72,-73.85"/>
</g>
<!-- supplyTo -->
<g id="node2" class="node">
<title>supplyTo</title>
<polygon fill="none" stroke="black" points="137.75,-106 70.75,-106 70.75,-70 137.75,-70 137.75,-106"/>
<text xml:space="preserve" text-anchor="middle" x="104.25" y="-82.95" font-family="Times,serif" font-size="14.00">supplyTo</text>
</g>
<!-- supplyTo&#45;&gt;supplyInternal -->
<g id="edge4" class="edge">
<title>supplyTo&#45;&gt;supplyInternal</title>
<path fill="none" stroke="black" d="M138.08,-88C162.21,-88 195.63,-88 224.19,-88"/>
<polygon fill="black" stroke="black" points="224.17,-91.5 234.17,-88 224.17,-84.5 224.17,-91.5"/>
</g>
<!-- supplyFrom -->
<g id="node3" class="node">
<title>supplyFrom</title>
<polygon fill="none" stroke="black" points="145.25,-160 63.25,-160 63.25,-124 145.25,-124 145.25,-160"/>
<text xml:space="preserve" text-anchor="middle" x="104.25" y="-136.95" font-family="Times,serif" font-size="14.00">supplyFrom</text>
</g>
<!-- supplyFrom&#45;&gt;supplyInternal -->
<g id="edge5" class="edge">
<title>supplyFrom&#45;&gt;supplyInternal</title>
<path fill="none" stroke="black" d="M145.36,-129.75C168.89,-122.56 199,-113.36 224.96,-105.43"/>
<polygon fill="black" stroke="black" points="225.82,-108.82 234.36,-102.56 223.77,-102.13 225.82,-108.82"/>
</g>
<!-- supplyBase -->
<g id="node5" class="node">
<title>supplyBase</title>
<polygon fill="none" stroke="black" points="481.38,-79 403.12,-79 403.12,-43 481.38,-43 481.38,-79"/>
<text xml:space="preserve" text-anchor="middle" x="442.25" y="-55.95" font-family="Times,serif" font-size="14.00">supplyBase</text>
</g>
<!-- supplyInternal&#45;&gt;supplyBase -->
<g id="edge2" class="edge">
<title>supplyInternal&#45;&gt;supplyBase</title>
<path fill="none" stroke="black" d="M330.33,-80.05C349.57,-76.74 371.92,-72.9 391.5,-69.54"/>
<polygon fill="black" stroke="black" points="391.91,-73.02 401.18,-67.88 390.73,-66.12 391.91,-73.02"/>
</g>
<!-- supplyCollateral -->
<g id="node6" class="node">
<title>supplyCollateral</title>
<polygon fill="none" stroke="black" points="494.88,-133 389.62,-133 389.62,-97 494.88,-97 494.88,-133"/>
<text xml:space="preserve" text-anchor="middle" x="442.25" y="-109.95" font-family="Times,serif" font-size="14.00">supplyCollateral</text>
</g>
<!-- supplyInternal&#45;&gt;supplyCollateral -->
<g id="edge3" class="edge">
<title>supplyInternal&#45;&gt;supplyCollateral</title>
<path fill="none" stroke="black" d="M330.33,-95.95C345.35,-98.53 362.26,-101.44 378.28,-104.19"/>
<polygon fill="black" stroke="black" points="377.25,-107.56 387.7,-105.8 378.43,-100.66 377.25,-107.56"/>
</g>
<!-- withdraw -->
<g id="node7" class="node">
<title>withdraw</title>
<polygon fill="none" stroke="black" points="137.75,-214 70.75,-214 70.75,-178 137.75,-178 137.75,-214"/>
<text xml:space="preserve" text-anchor="middle" x="104.25" y="-190.95" font-family="Times,serif" font-size="14.00">withdraw</text>
</g>
<!-- withdrawInternal -->
<g id="node10" class="node">
<title>withdrawInternal</title>
<polygon fill="none" stroke="black" points="337.5,-268 228.5,-268 228.5,-232 337.5,-232 337.5,-268"/>
<text xml:space="preserve" text-anchor="middle" x="283" y="-244.95" font-family="Times,serif" font-size="14.00">withdrawInternal</text>
</g>
<!-- withdraw&#45;&gt;withdrawInternal -->
<g id="edge6" class="edge">
<title>withdraw&#45;&gt;withdrawInternal</title>
<path fill="none" stroke="black" d="M138.08,-206.03C160.28,-212.81 190.34,-222 217.25,-230.22"/>
<polygon fill="black" stroke="black" points="216.13,-233.54 226.72,-233.11 218.18,-226.84 216.13,-233.54"/>
</g>
<!-- withdrawTo -->
<g id="node8" class="node">
<title>withdrawTo</title>
<polygon fill="none" stroke="black" points="145.25,-268 63.25,-268 63.25,-232 145.25,-232 145.25,-268"/>
<text xml:space="preserve" text-anchor="middle" x="104.25" y="-244.95" font-family="Times,serif" font-size="14.00">withdrawTo</text>
</g>
<!-- withdrawTo&#45;&gt;withdrawInternal -->
<g id="edge9" class="edge">
<title>withdrawTo&#45;&gt;withdrawInternal</title>
<path fill="none" stroke="black" d="M145.36,-250C166.55,-250 193.08,-250 217.11,-250"/>
<polygon fill="black" stroke="black" points="216.8,-253.5 226.8,-250 216.8,-246.5 216.8,-253.5"/>
</g>
<!-- withdrawFrom -->
<g id="node9" class="node">
<title>withdrawFrom</title>
<polygon fill="none" stroke="black" points="152.75,-322 55.75,-322 55.75,-286 152.75,-286 152.75,-322"/>
<text xml:space="preserve" text-anchor="middle" x="104.25" y="-298.95" font-family="Times,serif" font-size="14.00">withdrawFrom</text>
</g>
<!-- withdrawFrom&#45;&gt;withdrawInternal -->
<g id="edge10" class="edge">
<title>withdrawFrom&#45;&gt;withdrawInternal</title>
<path fill="none" stroke="black" d="M153.08,-289.39C172.84,-283.35 196.06,-276.26 217.31,-269.77"/>
<polygon fill="black" stroke="black" points="218.22,-273.15 226.76,-266.88 216.17,-266.45 218.22,-273.15"/>
</g>
<!-- withdrawBase -->
<g id="node11" class="node">
<title>withdrawBase</title>
<polygon fill="none" stroke="black" points="488.88,-241 395.62,-241 395.62,-205 488.88,-205 488.88,-241"/>
<text xml:space="preserve" text-anchor="middle" x="442.25" y="-217.95" font-family="Times,serif" font-size="14.00">withdrawBase</text>
</g>
<!-- withdrawInternal&#45;&gt;withdrawBase -->
<g id="edge7" class="edge">
<title>withdrawInternal&#45;&gt;withdrawBase</title>
<path fill="none" stroke="black" d="M337.68,-240.78C352.57,-238.23 368.79,-235.44 383.88,-232.85"/>
<polygon fill="black" stroke="black" points="384.4,-236.31 393.67,-231.17 383.22,-229.41 384.4,-236.31"/>
</g>
<!-- withdrawCollateral -->
<g id="node12" class="node">
<title>withdrawCollateral</title>
<polygon fill="none" stroke="black" points="502.38,-295 382.12,-295 382.12,-259 502.38,-259 502.38,-295"/>
<text xml:space="preserve" text-anchor="middle" x="442.25" y="-271.95" font-family="Times,serif" font-size="14.00">withdrawCollateral</text>
</g>
<!-- withdrawInternal&#45;&gt;withdrawCollateral -->
<g id="edge8" class="edge">
<title>withdrawInternal&#45;&gt;withdrawCollateral</title>
<path fill="none" stroke="black" d="M337.68,-259.22C348.35,-261.05 359.71,-263 370.85,-264.91"/>
<polygon fill="black" stroke="black" points="369.94,-268.31 380.39,-266.55 371.13,-261.41 369.94,-268.31"/>
</g>
<!-- withdrawReserves -->
<g id="node13" class="node">
<title>withdrawReserves</title>
<polygon fill="none" stroke="black" points="162.12,-376 46.38,-376 46.38,-340 162.12,-340 162.12,-376"/>
<text xml:space="preserve" text-anchor="middle" x="104.25" y="-352.95" font-family="Times,serif" font-size="14.00">withdrawReserves</text>
</g>
<!-- borrowBalanceOf -->
<g id="node14" class="node">
<title>borrowBalanceOf</title>
<polygon fill="none" stroke="black" points="160.62,-430 47.88,-430 47.88,-394 160.62,-394 160.62,-430"/>
<text xml:space="preserve" text-anchor="middle" x="104.25" y="-406.95" font-family="Times,serif" font-size="14.00">borrowBalanceOf</text>
</g>
<!-- repayAndSupplyAmount -->
<g id="node15" class="node">
<title>repayAndSupplyAmount</title>
<polygon fill="none" stroke="black" points="180.5,-484 28,-484 28,-448 180.5,-448 180.5,-484"/>
<text xml:space="preserve" text-anchor="middle" x="104.25" y="-460.95" font-family="Times,serif" font-size="14.00">repayAndSupplyAmount</text>
</g>
<!-- withdrawAndBorrowAmount -->
<g id="node16" class="node">
<title>withdrawAndBorrowAmount</title>
<polygon fill="none" stroke="black" points="192.5,-538 16,-538 16,-502 192.5,-502 192.5,-538"/>
<text xml:space="preserve" text-anchor="middle" x="104.25" y="-514.95" font-family="Times,serif" font-size="14.00">withdrawAndBorrowAmount</text>
</g>
<!-- accrueAccount -->
<g id="node17" class="node">
<title>accrueAccount</title>
<polygon fill="none" stroke="black" points="152.75,-592 55.75,-592 55.75,-556 152.75,-556 152.75,-592"/>
<text xml:space="preserve" text-anchor="middle" x="104.25" y="-568.95" font-family="Times,serif" font-size="14.00">accrueAccount</text>
</g>
<!-- accrueInternal -->
<g id="node18" class="node">
<title>accrueInternal</title>
<polygon fill="none" stroke="black" points="329.62,-538 236.38,-538 236.38,-502 329.62,-502 329.62,-538"/>
<text xml:space="preserve" text-anchor="middle" x="283" y="-514.95" font-family="Times,serif" font-size="14.00">accrueInternal</text>
</g>
<!-- accrueAccount&#45;&gt;accrueInternal -->
<g id="edge11" class="edge">
<title>accrueAccount&#45;&gt;accrueInternal</title>
<path fill="none" stroke="black" d="M153.08,-559.39C175.32,-552.59 201.94,-544.46 225.19,-537.35"/>
<polygon fill="black" stroke="black" points="225.97,-540.78 234.51,-534.51 223.93,-534.08 225.97,-540.78"/>
</g>
<!-- accruedInterestIndices -->
<g id="node19" class="node">
<title>accruedInterestIndices</title>
<polygon fill="none" stroke="black" points="511,-538 373.5,-538 373.5,-502 511,-502 511,-538"/>
<text xml:space="preserve" text-anchor="middle" x="442.25" y="-514.95" font-family="Times,serif" font-size="14.00">accruedInterestIndices</text>
</g>
<!-- accrueInternal&#45;&gt;accruedInterestIndices -->
<g id="edge12" class="edge">
<title>accrueInternal&#45;&gt;accruedInterestIndices</title>
<path fill="none" stroke="black" d="M329.91,-520C339.93,-520 350.82,-520 361.73,-520"/>
<polygon fill="black" stroke="black" points="361.56,-523.5 371.56,-520 361.56,-516.5 361.56,-523.5"/>
</g>
<!-- absorb -->
<g id="node20" class="node">
<title>absorb</title>
<polygon fill="none" stroke="black" points="131.25,-646 77.25,-646 77.25,-610 131.25,-610 131.25,-646"/>
<text xml:space="preserve" text-anchor="middle" x="104.25" y="-622.95" font-family="Times,serif" font-size="14.00">absorb</text>
</g>
<!-- absorbInternal -->
<g id="node21" class="node">
<title>absorbInternal</title>
<polygon fill="none" stroke="black" points="330,-592 236,-592 236,-556 330,-556 330,-592"/>
<text xml:space="preserve" text-anchor="middle" x="283" y="-568.95" font-family="Times,serif" font-size="14.00">absorbInternal</text>
</g>
<!-- absorb&#45;&gt;absorbInternal -->
<g id="edge13" class="edge">
<title>absorb&#45;&gt;absorbInternal</title>
<path fill="none" stroke="black" d="M131.71,-619.92C156.26,-612.41 193.63,-601 224.96,-591.43"/>
<polygon fill="black" stroke="black" points="225.77,-594.84 234.31,-588.57 223.72,-588.15 225.77,-594.84"/>
</g>
<!-- getPrice -->
<g id="node23" class="node">
<title>getPrice</title>
<polygon fill="none" stroke="black" points="472.38,-619 412.12,-619 412.12,-583 472.38,-583 472.38,-619"/>
<text xml:space="preserve" text-anchor="middle" x="442.25" y="-595.95" font-family="Times,serif" font-size="14.00">getPrice</text>
</g>
<!-- absorbInternal&#45;&gt;getPrice -->
<g id="edge14" class="edge">
<title>absorbInternal&#45;&gt;getPrice</title>
<path fill="none" stroke="black" d="M330.33,-581.95C352.75,-585.81 379.42,-590.38 400.98,-594.09"/>
<polygon fill="black" stroke="black" points="400.12,-597.49 410.57,-595.73 401.31,-590.59 400.12,-597.49"/>
</g>
<!-- buyCollateral -->
<g id="node22" class="node">
<title>buyCollateral</title>
<polygon fill="none" stroke="black" points="327.75,-646 238.25,-646 238.25,-610 327.75,-610 327.75,-646"/>
<text xml:space="preserve" text-anchor="middle" x="283" y="-622.95" font-family="Times,serif" font-size="14.00">buyCollateral</text>
</g>
<!-- buyCollateral&#45;&gt;getPrice -->
<g id="edge15" class="edge">
<title>buyCollateral&#45;&gt;getPrice</title>
<path fill="none" stroke="black" d="M328.22,-620.41C350.96,-616.5 378.49,-611.78 400.69,-607.97"/>
<polygon fill="black" stroke="black" points="401,-611.46 410.26,-606.32 399.81,-604.56 401,-611.46"/>
</g>
</g>
</svg>
